<mxfile host="app.diagrams.net" modified="2023-10-17T10:38:22.430Z" agent="Mozilla/5.0 (Windows NT 10.0; Win64; x64) AppleWebKit/537.36 (KHTML, like Gecko) Chrome/118.0.0.0 Safari/537.36" version="22.0.4" etag="JNZZ1CAjN_-vlX2S3MFV" type="github">
  <diagram name="第 1 页" id="53_ZCxeH3DbTyFZRHUCh">
    <mxGraphModel>
      <root>
        <mxCell id="0" />
        <mxCell id="1" parent="0" />
      </root>
    </mxGraphModel>
  </diagram>
</mxfile>
